HIERARCHY
ROOT Hips
{
	OFFSET 0.000000 0.000000 0.000000
	CHANNELS 6 Xposition Yposition Zposition Xrotation Yrotation Zrotation
	JOINT LeftUpLeg_virtual
	{
		OFFSET 0.000000 0.000000 0.000000
		CHANNELS 3 Xrotation Yrotation Zrotation
		JOINT LeftUpLeg
		{
			OFFSET 15.427100 -6.655098 0.678600
			CHANNELS 3 Xrotation Yrotation Zrotation
			JOINT LeftLeg
			{
				OFFSET 4.081073 -39.591068 13.024000
				CHANNELS 3 Xrotation Yrotation Zrotation
				JOINT LeftFoot
				{
					OFFSET -4.081074 -37.707932 -15.979700
					CHANNELS 3 Xrotation Yrotation Zrotation
					JOINT LeftToeBase
					{
						OFFSET 5.346399 -15.068900 20.645000
						CHANNELS 3 Xrotation Yrotation Zrotation
						JOINT LeftToe_End
						{
							OFFSET 2.754700 0.931300 11.300900
							CHANNELS 3 Xrotation Yrotation Zrotation
							End Site
							{
								OFFSET 0 0 0
							}
						}
					}
				}
			}
		}
	}
	JOINT RightUpLeg_virtual
	{
		OFFSET 0.000000 0.000000 0.000000
		CHANNELS 3 Xrotation Yrotation Zrotation
		JOINT RightUpLeg
		{
			OFFSET -15.569500 -6.655098 0.678600
			CHANNELS 3 Xrotation Yrotation Zrotation
			JOINT RightLeg
			{
				OFFSET -4.081825 -39.591045 13.023800
				CHANNELS 3 Xrotation Yrotation Zrotation
				JOINT RightFoot
				{
					OFFSET 4.081824 -37.707954 -15.979600
					CHANNELS 3 Xrotation Yrotation Zrotation
					JOINT RightToeBase
					{
						OFFSET -5.346400 -15.068900 20.645000
						CHANNELS 3 Xrotation Yrotation Zrotation
						JOINT RightToe_End
						{
							OFFSET -2.754700 0.931300 11.300900
							CHANNELS 3 Xrotation Yrotation Zrotation
							End Site
							{
								OFFSET 0 0 0
							}
						}
					}
				}
			}
		}
	}
	JOINT Spine_virtual
	{
		OFFSET 0.000000 0.000000 0.000000
		CHANNELS 3 Xrotation Yrotation Zrotation
		JOINT Spine
		{
			OFFSET -0.279200 12.230698 -2.892100
			CHANNELS 3 Xrotation Yrotation Zrotation
			JOINT Spine1
			{
				OFFSET -0.232667 10.192268 -1.242267
				CHANNELS 3 Xrotation Yrotation Zrotation
				JOINT Spine1_split
				{
					OFFSET -0.232667 10.192268 -1.242267
					CHANNELS 3 Xrotation Yrotation Zrotation
					JOINT Spine2
					{
						OFFSET -0.232667 10.192268 -1.242267
						CHANNELS 3 Xrotation Yrotation Zrotation
						JOINT Neck_virtual
						{
							OFFSET 0.000000 0.000000 0.000000
							CHANNELS 3 Xrotation Yrotation Zrotation
							JOINT Neck
							{
								OFFSET -0.418800 17.814194 8.416900
								CHANNELS 3 Xrotation Yrotation Zrotation
								JOINT Head
								{
									OFFSET 0.000000 7.031097 3.806800
									CHANNELS 3 Xrotation Yrotation Zrotation
									JOINT HeadTop_End
									{
										OFFSET 0.000000 24.646606 12.978600
										CHANNELS 3 Xrotation Yrotation Zrotation
										End Site
										{
											OFFSET 0 0 0
										}
									}
								}
							}
						}
						JOINT LeftShoulder_virtual
						{
							OFFSET 0.000000 0.000000 0.000000
							CHANNELS 3 Xrotation Yrotation Zrotation
							JOINT LeftShoulder
							{
								OFFSET 8.476499 7.247704 -3.868750
								CHANNELS 3 Xrotation Yrotation Zrotation
								JOINT LeftShoulder_split
								{
									OFFSET 8.476499 7.247704 -3.868750
									CHANNELS 3 Xrotation Yrotation Zrotation
									JOINT LeftArm
									{
										OFFSET 9.308998 -2.777710 0.208600
										CHANNELS 3 Xrotation Yrotation Zrotation
										JOINT LeftForeArm
										{
											OFFSET 29.972298 0.000000 0.000000
											CHANNELS 3 Xrotation Yrotation Zrotation
											JOINT LeftHand
											{
												OFFSET 26.026505 0.000000 0.000000
												CHANNELS 3 Xrotation Yrotation Zrotation
												End Site
												{
													OFFSET 0 0 0
												}
											}
										}
									}
								}
							}
						}
						JOINT RightShoulder_virtual
						{
							OFFSET 0.000000 0.000000 0.000000
							CHANNELS 3 Xrotation Yrotation Zrotation
							JOINT RightShoulder
							{
								OFFSET -7.570500 7.247704 -3.868750
								CHANNELS 3 Xrotation Yrotation Zrotation
								JOINT RightShoulder_split
								{
									OFFSET -7.570500 7.247704 -3.868750
									CHANNELS 3 Xrotation Yrotation Zrotation
									JOINT RightArm
									{
										OFFSET -9.308998 -2.777710 0.208500
										CHANNELS 3 Xrotation Yrotation Zrotation
										JOINT RightForeArm
										{
											OFFSET -29.972300 0.000000 0.000000
											CHANNELS 3 Xrotation Yrotation Zrotation
											JOINT RightHand
											{
												OFFSET -26.026505 0.000000 0.000000
												CHANNELS 3 Xrotation Yrotation Zrotation
												End Site
												{
													OFFSET 0 0 0
												}
											}
										}
									}
								}
							}
						}
					}
				}
			}
		}
	}
}
MOTION
Frames: 9
Frame Time: 0.03333333
-0.003052 74.367661 -0.357815 0.000000 0.000000 0.000000 11.754820 -49.677373 11.771046 -67.586600 25.164244 42.947311 43.279774 -19.356830 3.336707 8.271915 0.637547 -12.352766 -0.971438 -6.109412 0.595614 0.000000 0.000000 0.000000 11.754820 -49.677373 11.771046 -29.726797 0.631825 -30.303039 49.962793 5.852543 -4.864545 -26.770020 -5.250115 27.155348 0.528304 2.970074 1.471357 0.000000 0.000000 0.000000 11.754820 -49.677373 11.771046 10.996889 2.942113 -2.515478 6.100709 5.566556 -4.284693 0.000000 0.000000 0.000000 0.000000 0.000000 0.000000 -5.786914 6.328138 -3.046181 2.319053 9.363313 -0.265467 -4.147094 23.161904 -3.523280 0.000000 0.000000 0.000000 -5.786914 6.328138 -3.046181 -1.875347 -16.181669 -2.870475 0.000000 0.000000 0.000000 -10.644677 2.164661 -45.510623 -22.862376 -25.786235 -15.871626 0.000000 0.000000 0.000000 -5.786914 6.328138 -3.046181 -5.074636 24.343808 1.482710 0.000000 0.000000 0.000000 6.642368 -34.733800 57.610392 -21.031985 44.833795 19.961648 0.000000 0.000000 0.000000 
1.406573 74.717155 1.671711 0.000000 0.000000 0.000000 11.355863 -51.057713 11.068697 -66.972710 25.666920 43.385201 45.369091 -18.605157 2.822183 5.705842 0.886114 -10.558591 -0.980016 -6.105367 0.600167 0.000000 0.000000 0.000000 11.355863 -51.057713 11.068697 -28.574788 1.025111 -30.671405 47.196570 6.270915 -5.409640 -24.280634 -6.212251 28.939081 0.888214 4.174542 1.281121 0.000000 0.000000 0.000000 11.355863 -51.057713 11.068697 10.845552 2.992718 -2.084756 6.211050 5.531380 -4.085919 0.000000 0.000000 0.000000 0.000000 0.000000 0.000000 -5.634571 6.080631 -2.847558 2.506703 8.998895 0.963299 -3.946310 23.543607 -4.816440 0.000000 0.000000 0.000000 -5.634571 6.080631 -2.847558 -1.898945 -15.838089 -3.026467 0.000000 0.000000 0.000000 -10.916586 3.036752 -45.852689 -21.654539 -24.915523 -15.679266 0.000000 0.000000 0.000000 -5.634571 6.080631 -2.847558 -5.162248 24.117347 1.733597 0.000000 0.000000 0.000000 7.217170 -34.742912 57.034818 -22.411830 42.270077 20.016530 0.000000 0.000000 0.000000 
3.202626 75.314285 3.881821 0.000000 0.000000 0.000000 11.201656 -53.035514 10.553235 -65.945032 26.525736 43.723473 47.077755 -17.588582 2.173397 2.935261 1.343512 -8.674695 -1.007658 -6.090157 0.617980 0.000000 0.000000 0.000000 11.201656 -53.035514 10.553235 -27.739604 1.449805 -31.274456 43.559706 6.951834 -5.639610 -21.461508 -6.621406 30.705515 0.809314 5.333110 1.037582 0.000000 0.000000 0.000000 11.201656 -53.035514 10.553235 10.464149 3.012491 -1.557221 6.431336 5.341313 -3.845160 0.000000 0.000000 0.000000 0.000000 0.000000 0.000000 -5.301526 5.369795 -2.622326 2.568982 8.163868 2.542383 -4.004227 23.257211 -5.915168 0.000000 0.000000 0.000000 -5.301526 5.369795 -2.622326 -1.914492 -15.246487 -3.208161 0.000000 0.000000 0.000000 -11.410816 4.730154 -46.239250 -20.337923 -23.776857 -15.687836 0.000000 0.000000 0.000000 -5.301526 5.369795 -2.622326 -5.246643 23.749249 2.050738 0.000000 0.000000 0.000000 6.457515 -34.285405 56.086040 -23.251159 39.750413 19.622507 0.000000 0.000000 0.000000 
5.161803 76.040291 5.828693 0.000000 0.000000 0.000000 11.510110 -55.256555 10.452714 -64.960693 27.593920 44.061499 48.037014 -16.451105 1.309311 0.595447 1.776058 -6.870216 -1.047187 -6.067046 0.642735 0.000000 0.000000 0.000000 11.510110 -55.256555 10.452714 -27.826112 1.752323 -32.196286 39.361195 8.455951 -5.517390 -17.365037 -6.338366 33.964198 0.960215 6.276862 0.793747 0.000000 0.000000 0.000000 11.510110 -55.256555 10.452714 9.852036 3.008549 -0.958627 6.717390 5.085065 -3.587320 0.000000 0.000000 0.000000 0.000000 0.000000 0.000000 -4.826097 4.336932 -2.382767 2.616215 7.004005 4.182491 -4.416532 22.341332 -6.655787 0.000000 0.000000 0.000000 -4.826097 4.336932 -2.382767 -1.928225 -15.208483 -3.284728 0.000000 0.000000 0.000000 -12.000028 7.722147 -46.629773 -18.981155 -22.555443 -16.005995 0.000000 0.000000 0.000000 -4.826097 4.336932 -2.382767 -5.338915 23.478676 2.322144 0.000000 0.000000 0.000000 5.725538 -33.787682 55.525883 -24.184759 38.525603 19.750274 0.000000 0.000000 0.000000 
7.266556 76.808372 7.589462 0.000000 0.000000 0.000000 12.283441 -57.787553 10.747175 -64.204796 28.817156 44.688852 48.498933 -15.276249 0.135883 -1.407724 2.115167 -5.031292 -1.095347 -6.037736 0.673005 0.000000 0.000000 0.000000 12.283441 -57.787553 10.747175 -28.690459 1.604553 -33.267242 34.680617 10.310176 -4.954968 -13.539672 -5.312236 37.021630 1.740931 6.366646 0.537236 0.000000 0.000000 0.000000 12.283441 -57.787553 10.747175 9.067094 2.998989 -0.303713 7.057564 4.776564 -3.360236 0.000000 0.000000 0.000000 0.000000 0.000000 0.000000 -4.219246 3.057089 -2.179149 2.651373 5.589404 5.905683 -5.121776 20.911644 -7.096891 0.000000 0.000000 0.000000 -4.219246 3.057089 -2.179149 -1.861196 -14.942410 -3.086446 0.000000 0.000000 0.000000 -12.866416 10.787316 -47.189456 -17.595961 -20.735737 -16.226704 0.000000 0.000000 0.000000 -4.219246 3.057089 -2.179149 -5.379705 23.438335 2.436304 0.000000 0.000000 0.000000 5.162482 -33.374060 55.550284 -25.106669 38.363127 20.295391 0.000000 0.000000 0.000000 
9.477523 77.644974 9.185982 0.000000 0.000000 0.000000 13.120968 -60.401986 11.195277 -63.591226 30.391053 45.597598 48.375392 -14.210116 -1.385590 -2.959937 2.167696 -3.012729 -1.138378 -6.003706 0.727449 0.000000 0.000000 0.000000 13.120968 -60.401986 11.195277 -29.614614 0.735595 -34.198272 30.298842 11.219327 -4.260018 -12.545458 -4.609933 37.217947 3.079925 4.842225 0.478447 0.000000 0.000000 0.000000 13.120968 -60.401986 11.195277 8.221722 2.947521 0.321707 7.490040 4.346346 -3.199096 0.000000 0.000000 0.000000 0.000000 0.000000 0.000000 -3.452812 1.528303 -2.061751 2.720417 4.029638 7.702041 -6.070363 19.086366 -7.331702 0.000000 0.000000 0.000000 -3.452812 1.528303 -2.061751 -1.850641 -14.865133 -2.796384 0.000000 0.000000 0.000000 -13.417178 14.291135 -47.430384 -16.882042 -19.128466 -17.174741 0.000000 0.000000 0.000000 -3.452812 1.528303 -2.061751 -5.399843 23.460221 2.631870 0.000000 0.000000 0.000000 4.198458 -32.965143 55.772705 -25.730344 38.595046 20.825894 0.000000 0.000000 0.000000 
11.722891 78.616859 10.699310 0.000000 0.000000 0.000000 13.557423 -62.685830 11.252492 -62.768168 32.015303 45.995604 47.821180 -13.108702 -2.692378 -4.153892 2.110618 -1.054424 -1.173979 -5.966561 0.803196 0.000000 0.000000 0.000000 13.557423 -62.685830 11.252492 -28.392307 -0.765158 -35.768307 25.810370 7.326513 -3.287255 -10.211877 -6.772594 35.957425 4.836278 3.283006 2.632763 0.000000 0.000000 0.000000 13.557423 -62.685830 11.252492 7.363180 2.756065 0.970800 8.024082 3.713044 -3.006929 0.000000 0.000000 0.000000 0.000000 0.000000 0.000000 -2.518586 -0.303938 -1.966444 3.002496 2.441457 9.399876 -7.258906 17.079481 -7.368895 0.000000 0.000000 0.000000 -2.518586 -0.303938 -1.966444 -1.782427 -14.619958 -2.522185 0.000000 0.000000 0.000000 -14.045003 17.446509 -47.547310 -16.311205 -17.357865 -18.110354 0.000000 0.000000 0.000000 -2.518586 -0.303938 -1.966444 -5.491293 23.586433 2.909933 0.000000 0.000000 0.000000 3.013799 -32.178066 56.105486 -26.152475 38.450232 20.961309 0.000000 0.000000 0.000000 
13.327940 79.206192 11.682800 0.000000 0.000000 0.000000 12.946525 -63.743936 10.474350 -62.050370 33.015280 45.814874 47.460379 -12.271830 -3.384448 -4.761098 1.766029 0.339973 -1.215170 -5.929376 0.895323 0.000000 0.000000 0.000000 12.946525 -63.743936 10.474350 -26.395169 -2.666539 -37.005668 23.656995 5.886870 -2.318860 -8.666900 -9.023409 35.632332 5.556900 2.044216 4.211793 0.000000 0.000000 0.000000 12.946525 -63.743936 10.474350 6.666679 2.323750 1.479903 8.712383 2.855818 -2.684251 0.000000 0.000000 0.000000 0.000000 0.000000 0.000000 -1.351391 -2.432578 -1.816750 3.213446 0.969754 10.834506 -8.434064 14.997186 -7.249092 0.000000 0.000000 0.000000 -1.351391 -2.432578 -1.816750 -1.757220 -14.903746 -2.195919 0.000000 0.000000 0.000000 -15.211132 19.752885 -47.509133 -15.402536 -14.785333 -18.476966 0.000000 0.000000 0.000000 -1.351391 -2.432578 -1.816750 -5.414791 23.882204 2.614548 0.000000 0.000000 0.000000 1.579252 -30.693279 56.962292 -26.042519 37.249683 20.088170 0.000000 0.000000 0.000000 
14.938693 79.792648 12.715256 0.000000 0.000000 0.000000 12.562757 -65.345178 9.961638 -60.902099 33.875317 45.407825 47.141262 -11.153607 -3.865427 -5.653251 1.923365 1.250505 -1.210999 -5.892620 1.088115 0.000000 0.000000 0.000000 12.562757 -65.345178 9.961638 -25.404467 -3.850731 -37.077525 24.216581 4.375141 -2.030942 -7.430051 -9.381261 33.240068 5.617945 1.431069 4.986216 0.000000 0.000000 0.000000 12.562757 -65.345178 9.961638 5.983499 1.813696 1.927829 9.309718 1.903406 -2.349628 0.000000 0.000000 0.000000 0.000000 0.000000 0.000000 -0.227088 -4.643785 -1.667687 3.745914 -0.294627 11.998855 -9.665377 12.980985 -7.016254 0.000000 0.000000 0.000000 -0.227088 -4.643785 -1.667687 -1.784745 -14.816311 -2.191108 0.000000 0.000000 0.000000 -16.006308 22.342322 -47.783532 -14.655110 -13.207817 -19.201139 0.000000 0.000000 0.000000 -0.227088 -4.643785 -1.667687 -5.448530 24.120782 2.523062 0.000000 0.000000 0.000000 0.736261 -29.339576 57.765430 -25.993472 36.873275 19.543937 0.000000 0.000000 0.000000 
